<svg width="25" height="25" viewBox="0 0 25 25" fill="none" xmlns="http://www.w3.org/2000/svg">
<path d="M8.1137 3.5H16.5484C19.4965 3.5 21.3315 5.58119 21.3315 8.52638V16.4736C21.3315 19.4188 19.4965 21.5 16.5474 21.5H8.1137C5.16559 21.5 3.33154 19.4188 3.33154 16.4736V8.52638C3.33154 5.58119 5.17435 3.5 8.1137 3.5Z" stroke="#6D6553" stroke-width="1.5" stroke-linecap="round" stroke-linejoin="round"/>
<path d="M12.176 9.3252C10.2418 9.3252 8.67334 10.8936 8.67334 12.8279C8.67334 14.7621 10.2418 16.3306 12.176 16.3306C14.1103 16.3306 15.6787 14.7621 15.6787 12.8279C15.6787 10.8936 14.1103 9.3252 12.176 9.3252Z" stroke="#6D6553" stroke-width="1.5" stroke-linecap="round" stroke-linejoin="round"/>
<path d="M17.1967 7.86667V7.93567M17.4787 7.88169C17.4787 8.03869 17.3517 8.16568 17.1947 8.16568C17.0377 8.16568 16.9097 8.03869 16.9097 7.88169C16.9097 7.72469 17.0377 7.59668 17.1947 7.59668C17.3517 7.59668 17.4787 7.72469 17.4787 7.88169Z" stroke="#6D6553" stroke-width="1.5" stroke-linecap="round" stroke-linejoin="round"/>
</svg>
