<svg width="25" height="25" viewBox="0 0 25 25" fill="none" xmlns="http://www.w3.org/2000/svg">
<path d="M8.61418 20.5368C8.39527 20.4268 8.15495 20.3889 7.91658 20.4453C7.10611 20.636 5.79847 20.962 4.84692 21.2013C4.30596 21.3375 3.81365 20.8559 3.93916 20.313C4.17559 19.2875 4.50347 17.8612 4.65914 17.148C4.70779 16.9262 4.67764 16.6975 4.58132 16.4922C4.01117 15.2712 3.66479 13.9198 3.66479 12.5002C3.66479 6.98846 8.68619 2.59267 14.3799 3.66097C17.9574 4.3323 20.8325 7.20834 21.5038 10.7849C22.5721 16.4786 18.1763 21.5 12.6646 21.5C11.2548 21.5 9.84594 21.1595 8.61418 20.5368Z" stroke="#6D6553" stroke-width="1.5" stroke-linecap="round" stroke-linejoin="round"/>
<path d="M9.26565 8.96082C7.8792 10.3541 8.92997 12.5675 10.7786 14.4161C12.6272 16.2648 14.8056 17.2805 16.1989 15.8941L16.3273 15.7656C16.8858 15.2081 16.8041 14.2809 16.1571 13.8295C15.9479 13.6845 15.729 13.5308 15.4964 13.3683C14.9934 13.0151 14.3055 13.0696 13.8706 13.5025L13.6352 13.7361C12.6223 13.1328 12.1086 12.5529 11.4246 11.5255L11.6581 11.2901C12.0901 10.8542 12.1446 10.1663 11.7924 9.66329C11.6289 9.43075 11.4762 9.21184 11.3303 9.00266C10.8798 8.35565 9.95255 8.27489 9.39408 8.83239L9.26565 8.96082Z" stroke="#6D6553" stroke-width="1.5" stroke-linecap="round" stroke-linejoin="round"/>
</svg>
