<svg width="25" height="25" viewBox="0 0 25 25" fill="none" xmlns="http://www.w3.org/2000/svg">
<path d="M8.44695 3.5H16.8817C19.8298 3.5 21.6648 5.58119 21.6648 8.52638V16.4736C21.6648 19.4188 19.8298 21.5 16.8807 21.5H8.44695C5.49884 21.5 3.66479 19.4188 3.66479 16.4736V8.52638C3.66479 5.58119 5.5076 3.5 8.44695 3.5Z" stroke="#6D6553" stroke-width="1.5" stroke-linecap="round" stroke-linejoin="round"/>
<path d="M12.5093 9.3252C10.575 9.3252 9.00659 10.8936 9.00659 12.8279C9.00659 14.7621 10.575 16.3306 12.5093 16.3306C14.4436 16.3306 16.012 14.7621 16.012 12.8279C16.012 10.8936 14.4436 9.3252 12.5093 9.3252Z" stroke="#6D6553" stroke-width="1.5" stroke-linecap="round" stroke-linejoin="round"/>
<path d="M17.5299 7.86667V7.93567M17.8119 7.88169C17.8119 8.03869 17.6849 8.16568 17.5279 8.16568C17.3709 8.16568 17.2429 8.03869 17.2429 7.88169C17.2429 7.72469 17.3709 7.59668 17.5279 7.59668C17.6849 7.59668 17.8119 7.72469 17.8119 7.88169Z" stroke="#6D6553" stroke-width="1.5" stroke-linecap="round" stroke-linejoin="round"/>
</svg>
