<svg width="24" height="25" viewBox="0 0 24 25" fill="none" xmlns="http://www.w3.org/2000/svg">
<path d="M7.78021 3.5H16.2149C19.163 3.5 20.998 5.58119 20.998 8.52638V16.4736C20.998 19.4188 19.163 21.5 16.2139 21.5H7.78021C4.8321 21.5 2.99805 19.4188 2.99805 16.4736V8.52638C2.99805 5.58119 4.84086 3.5 7.78021 3.5Z" stroke="#6D6553" stroke-width="1.5" stroke-linecap="round" stroke-linejoin="round"/>
<path d="M11.8425 9.3252C9.90827 9.3252 8.33984 10.8936 8.33984 12.8279C8.33984 14.7621 9.90827 16.3306 11.8425 16.3306C13.7768 16.3306 15.3452 14.7621 15.3452 12.8279C15.3452 10.8936 13.7768 9.3252 11.8425 9.3252Z" stroke="#6D6553" stroke-width="1.5" stroke-linecap="round" stroke-linejoin="round"/>
<path d="M16.8632 7.86667V7.93567M17.1452 7.88169C17.1452 8.03869 17.0182 8.16568 16.8612 8.16568C16.7042 8.16568 16.5762 8.03869 16.5762 7.88169C16.5762 7.72469 16.7042 7.59668 16.8612 7.59668C17.0182 7.59668 17.1452 7.72469 17.1452 7.88169Z" stroke="#6D6553" stroke-width="1.5" stroke-linecap="round" stroke-linejoin="round"/>
</svg>
