<svg width="25" height="25" viewBox="0 0 25 25" fill="none" xmlns="http://www.w3.org/2000/svg">
<path d="M8.28093 20.5368C8.06202 20.4268 7.8217 20.3889 7.58333 20.4453C6.77286 20.636 5.46522 20.962 4.51367 21.2013C3.97271 21.3375 3.4804 20.8559 3.60591 20.313C3.84234 19.2875 4.17022 17.8612 4.32589 17.148C4.37454 16.9262 4.34438 16.6975 4.24806 16.4922C3.67791 15.2712 3.33154 13.9198 3.33154 12.5002C3.33154 6.98846 8.35293 2.59267 14.0466 3.66097C17.6241 4.3323 20.4992 7.20834 21.1705 10.7849C22.2388 16.4786 17.843 21.5 12.3313 21.5C10.9215 21.5 9.51269 21.1595 8.28093 20.5368Z" stroke="#6D6553" stroke-width="1.5" stroke-linecap="round" stroke-linejoin="round"/>
<path d="M8.93239 8.96082C7.54594 10.3541 8.59672 12.5675 10.4453 14.4161C12.2939 16.2648 14.4723 17.2805 15.8656 15.8941L15.994 15.7656C16.5525 15.2081 16.4708 14.2809 15.8238 13.8295C15.6146 13.6845 15.3957 13.5308 15.1631 13.3683C14.6601 13.0151 13.9722 13.0696 13.5373 13.5025L13.3019 13.7361C12.289 13.1328 11.7753 12.5529 11.0913 11.5255L11.3248 11.2901C11.7568 10.8542 11.8113 10.1663 11.4591 9.66329C11.2956 9.43075 11.1429 9.21184 10.997 9.00266C10.5465 8.35565 9.61929 8.27489 9.06082 8.83239L8.93239 8.96082Z" stroke="#6D6553" stroke-width="1.5" stroke-linecap="round" stroke-linejoin="round"/>
</svg>
