<svg width="24" height="25" viewBox="0 0 24 25" fill="none" xmlns="http://www.w3.org/2000/svg">
<path d="M7.94744 20.5368C7.72853 20.4268 7.48821 20.3889 7.24984 20.4453C6.43937 20.636 5.13173 20.962 4.18018 21.2013C3.63922 21.3375 3.14691 20.8559 3.27242 20.313C3.50885 19.2875 3.83673 17.8612 3.9924 17.148C4.04105 16.9262 4.01089 16.6975 3.91457 16.4922C3.34442 15.2712 2.99805 13.9198 2.99805 12.5002C2.99805 6.98846 8.01944 2.59267 13.7131 3.66097C17.2906 4.3323 20.1657 7.20834 20.837 10.7849C21.9053 16.4786 17.5095 21.5 11.9978 21.5C10.588 21.5 9.1792 21.1595 7.94744 20.5368Z" stroke="#6D6553" stroke-width="1.5" stroke-linecap="round" stroke-linejoin="round"/>
<path d="M8.5989 8.96082C7.21245 10.3541 8.26323 12.5675 10.1118 14.4161C11.9604 16.2648 14.1388 17.2805 15.5321 15.8941L15.6605 15.7656C16.219 15.2081 16.1373 14.2809 15.4903 13.8295C15.2811 13.6845 15.0622 13.5308 14.8296 13.3683C14.3266 13.0151 13.6387 13.0696 13.2038 13.5025L12.9684 13.7361C11.9555 13.1328 11.4418 12.5529 10.7578 11.5255L10.9913 11.2901C11.4233 10.8542 11.4778 10.1663 11.1256 9.66329C10.9621 9.43075 10.8094 9.21184 10.6635 9.00266C10.213 8.35565 9.2858 8.27489 8.72733 8.83239L8.5989 8.96082Z" stroke="#6D6553" stroke-width="1.5" stroke-linecap="round" stroke-linejoin="round"/>
</svg>
